<?xml version="1.0" encoding="iso-8859-1"?>
<!-- Uploaded to: SVG Repo, www.svgrepo.com, Generator: SVG Repo Mixer Tools -->
<!DOCTYPE svg PUBLIC "-//W3C//DTD SVG 1.1//EN" "http://www.w3.org/Graphics/SVG/1.1/DTD/svg11.dtd">
<svg fill="#000000" version="1.1" id="Capa_1" xmlns="http://www.w3.org/2000/svg" xmlns:xlink="http://www.w3.org/1999/xlink" 
	 width="800px" height="800px" viewBox="0 0 92.896 92.896"
	 xml:space="preserve">
<g>
	<g>
		<path d="M77.472,49.285c0-2.676,0-6.404-4.979-6.404c-3.919,0-5.152,2.732-5.152,6.167v23.715H57V49.285
			c0-2.676,0-6.404-4.979-6.404c-3.908,0-5.16,2.732-5.16,6.167v23.715H36.537V36.067h9.94v4.42h0.163
			c1.353-2.292,4.012-5.325,9.602-5.325c4.924,0,7.263,1.726,9.563,5.234c1.308-1.863,3.901-5.234,9.154-5.234
			c6.905,0,12.277,4.056,12.277,11.821V68.68c3.607-6.603,5.658-14.176,5.658-22.231C92.897,20.796,72.103,0,46.449,0
			C20.796,0,0.001,20.796,0.001,46.448c0,25.651,20.795,46.448,46.448,46.448c15.881,0,29.896-7.977,38.271-20.135h-7.248V49.285
			L77.472,49.285z"/>
	</g>
</g>
</svg>